# xmcd
#
# Track frame offsets: 
#        150
#        20831
#        46970
#        66588
#        97435
#        133610
#        171144
#        196526
#        231276
#        278796
#
# Disc length: 4471 seconds
#
# Revision: 0
# Processed by: cddbd v1.4PL0 Copyright (c) Steve Scherf et al.
# Submitted via: ExactAudioCopy v0.90a11
#
DISCID=9411750a
DTITLE=Savoy Brown - Jack The Toad - Live '70-'72
DYEAR=1900
DGENRE=
TTITLE0=So Tired
TTITLE1=Let it Rock
TTITLE2=The Saddest Feeling
TTITLE3=Jack The Toad
TTITLE4=I Hate To See You Go
TTITLE5=Love Me Please
TTITLE6=Tell Mama
TTITLE7=Shake Rattle and Roll
TTITLE8=Hellbound Train
TTITLE9=All I Can Do
EXTD=
EXTT0=
EXTT1=
EXTT2=
EXTT3=
EXTT4=
EXTT5=
EXTT6=
EXTT7=
EXTT8=
EXTT9=
PLAYORDER=
